<mxfile host="Electron" modified="2024-04-17T12:01:55.305Z" agent="Mozilla/5.0 (Windows NT 10.0; Win64; x64) AppleWebKit/537.36 (KHTML, like Gecko) draw.io/24.0.4 Chrome/120.0.6099.109 Electron/28.1.0 Safari/537.36" etag="JMBj9HUSmAX1IPsGAzSO" version="24.0.4" type="device">
  <diagram id="23iRSUPoRavnBvh4doch" name="Page-1">
    <mxGraphModel dx="2074" dy="727" grid="1" gridSize="10" guides="1" tooltips="1" connect="1" arrows="1" fold="1" page="1" pageScale="1" pageWidth="827" pageHeight="1169" math="0" shadow="0">
      <root>
        <mxCell id="0" />
        <mxCell id="1" parent="0" />
        <mxCell id="y7_YaEfgx6U-R0lL4MM_-1" value="&lt;h1&gt;God sort&lt;/h1&gt;" style="text;html=1;align=center;verticalAlign=middle;resizable=0;points=[];autosize=1;strokeColor=none;fillColor=none;" vertex="1" parent="1">
          <mxGeometry x="354" y="10" width="120" height="70" as="geometry" />
        </mxCell>
        <mxCell id="y7_YaEfgx6U-R0lL4MM_-7" value="" style="edgeStyle=orthogonalEdgeStyle;rounded=0;orthogonalLoop=1;jettySize=auto;html=1;" edge="1" parent="1" source="y7_YaEfgx6U-R0lL4MM_-2" target="y7_YaEfgx6U-R0lL4MM_-4">
          <mxGeometry relative="1" as="geometry" />
        </mxCell>
        <mxCell id="y7_YaEfgx6U-R0lL4MM_-2" value="&lt;h3&gt;Start&lt;/h3&gt;" style="rounded=1;whiteSpace=wrap;html=1;arcSize=50;fillColor=#f5f5f5;fontColor=#333333;strokeColor=#666666;" vertex="1" parent="1">
          <mxGeometry x="360" y="120" width="120" height="40" as="geometry" />
        </mxCell>
        <mxCell id="y7_YaEfgx6U-R0lL4MM_-10" value="" style="edgeStyle=orthogonalEdgeStyle;rounded=0;orthogonalLoop=1;jettySize=auto;html=1;" edge="1" parent="1" source="y7_YaEfgx6U-R0lL4MM_-3" target="y7_YaEfgx6U-R0lL4MM_-9">
          <mxGeometry relative="1" as="geometry" />
        </mxCell>
        <mxCell id="y7_YaEfgx6U-R0lL4MM_-3" value="isSorted() = false" style="shape=trapezoid;perimeter=trapezoidPerimeter;whiteSpace=wrap;html=1;fixedSize=1;fillColor=#f5f5f5;fontColor=#333333;strokeColor=#666666;" vertex="1" parent="1">
          <mxGeometry x="360" y="280" width="120" height="40" as="geometry" />
        </mxCell>
        <mxCell id="y7_YaEfgx6U-R0lL4MM_-8" value="" style="edgeStyle=orthogonalEdgeStyle;rounded=0;orthogonalLoop=1;jettySize=auto;html=1;" edge="1" parent="1" source="y7_YaEfgx6U-R0lL4MM_-4" target="y7_YaEfgx6U-R0lL4MM_-3">
          <mxGeometry relative="1" as="geometry" />
        </mxCell>
        <mxCell id="y7_YaEfgx6U-R0lL4MM_-4" value="isSorted ()" style="shape=process;whiteSpace=wrap;html=1;backgroundOutline=1;fillColor=#f5f5f5;fontColor=#333333;strokeColor=#666666;" vertex="1" parent="1">
          <mxGeometry x="360" y="200" width="120" height="40" as="geometry" />
        </mxCell>
        <mxCell id="y7_YaEfgx6U-R0lL4MM_-12" value="" style="edgeStyle=orthogonalEdgeStyle;rounded=0;orthogonalLoop=1;jettySize=auto;html=1;" edge="1" parent="1" source="y7_YaEfgx6U-R0lL4MM_-9" target="y7_YaEfgx6U-R0lL4MM_-11">
          <mxGeometry relative="1" as="geometry" />
        </mxCell>
        <mxCell id="y7_YaEfgx6U-R0lL4MM_-9" value="i = 0; i &amp;lt; arr.length; ++i" style="shape=hexagon;perimeter=hexagonPerimeter2;whiteSpace=wrap;html=1;fixedSize=1;fillColor=#f5f5f5;fontColor=#333333;strokeColor=#666666;" vertex="1" parent="1">
          <mxGeometry x="340" y="360" width="160" height="40" as="geometry" />
        </mxCell>
        <mxCell id="y7_YaEfgx6U-R0lL4MM_-14" value="" style="edgeStyle=orthogonalEdgeStyle;rounded=0;orthogonalLoop=1;jettySize=auto;html=1;" edge="1" parent="1" source="y7_YaEfgx6U-R0lL4MM_-11" target="y7_YaEfgx6U-R0lL4MM_-13">
          <mxGeometry relative="1" as="geometry" />
        </mxCell>
        <mxCell id="y7_YaEfgx6U-R0lL4MM_-11" value="" style="shape=trapezoid;perimeter=trapezoidPerimeter;whiteSpace=wrap;html=1;fixedSize=1;fillColor=#f5f5f5;strokeColor=#666666;fontColor=#333333;" vertex="1" parent="1">
          <mxGeometry x="360" y="440" width="120" height="40" as="geometry" />
        </mxCell>
        <mxCell id="y7_YaEfgx6U-R0lL4MM_-19" value="" style="edgeStyle=orthogonalEdgeStyle;rounded=0;orthogonalLoop=1;jettySize=auto;html=1;" edge="1" parent="1" source="y7_YaEfgx6U-R0lL4MM_-13" target="y7_YaEfgx6U-R0lL4MM_-18">
          <mxGeometry relative="1" as="geometry" />
        </mxCell>
        <mxCell id="y7_YaEfgx6U-R0lL4MM_-13" value="swap arr[i] and&amp;nbsp;&lt;div&gt;arr[ random[0, arr.length) ]&lt;/div&gt;" style="whiteSpace=wrap;html=1;fillColor=#f5f5f5;strokeColor=#666666;fontColor=#333333;" vertex="1" parent="1">
          <mxGeometry x="340" y="520" width="160" height="40" as="geometry" />
        </mxCell>
        <mxCell id="y7_YaEfgx6U-R0lL4MM_-22" value="" style="edgeStyle=orthogonalEdgeStyle;rounded=0;orthogonalLoop=1;jettySize=auto;html=1;" edge="1" parent="1" source="y7_YaEfgx6U-R0lL4MM_-15" target="y7_YaEfgx6U-R0lL4MM_-21">
          <mxGeometry relative="1" as="geometry" />
        </mxCell>
        <mxCell id="y7_YaEfgx6U-R0lL4MM_-15" value="isSorted ()" style="shape=process;whiteSpace=wrap;html=1;backgroundOutline=1;fillColor=#f5f5f5;fontColor=#333333;strokeColor=#666666;" vertex="1" parent="1">
          <mxGeometry x="360" y="680" width="120" height="40" as="geometry" />
        </mxCell>
        <mxCell id="y7_YaEfgx6U-R0lL4MM_-20" value="" style="edgeStyle=orthogonalEdgeStyle;rounded=0;orthogonalLoop=1;jettySize=auto;html=1;" edge="1" parent="1" source="y7_YaEfgx6U-R0lL4MM_-18" target="y7_YaEfgx6U-R0lL4MM_-15">
          <mxGeometry relative="1" as="geometry" />
        </mxCell>
        <mxCell id="y7_YaEfgx6U-R0lL4MM_-18" value="" style="shape=trapezoid;perimeter=trapezoidPerimeter;whiteSpace=wrap;html=1;fixedSize=1;fillColor=#f5f5f5;strokeColor=#666666;fontColor=#333333;flipV=1;" vertex="1" parent="1">
          <mxGeometry x="360" y="600" width="120" height="40" as="geometry" />
        </mxCell>
        <mxCell id="y7_YaEfgx6U-R0lL4MM_-44" value="" style="edgeStyle=orthogonalEdgeStyle;rounded=0;orthogonalLoop=1;jettySize=auto;html=1;" edge="1" parent="1" source="y7_YaEfgx6U-R0lL4MM_-21" target="y7_YaEfgx6U-R0lL4MM_-43">
          <mxGeometry relative="1" as="geometry" />
        </mxCell>
        <mxCell id="y7_YaEfgx6U-R0lL4MM_-21" value="isSorted = true" style="shape=trapezoid;perimeter=trapezoidPerimeter;whiteSpace=wrap;html=1;fixedSize=1;fillColor=#f5f5f5;strokeColor=#666666;fontColor=#333333;flipV=1;" vertex="1" parent="1">
          <mxGeometry x="360" y="760" width="120" height="40" as="geometry" />
        </mxCell>
        <mxCell id="y7_YaEfgx6U-R0lL4MM_-23" value="&lt;h2&gt;isSorted(int[] arr)&lt;/h2&gt;" style="text;html=1;align=center;verticalAlign=middle;resizable=0;points=[];autosize=1;strokeColor=none;fillColor=none;" vertex="1" parent="1">
          <mxGeometry x="-185" y="110" width="170" height="60" as="geometry" />
        </mxCell>
        <mxCell id="y7_YaEfgx6U-R0lL4MM_-26" value="" style="edgeStyle=orthogonalEdgeStyle;rounded=0;orthogonalLoop=1;jettySize=auto;html=1;" edge="1" parent="1" source="y7_YaEfgx6U-R0lL4MM_-24" target="y7_YaEfgx6U-R0lL4MM_-25">
          <mxGeometry relative="1" as="geometry" />
        </mxCell>
        <mxCell id="y7_YaEfgx6U-R0lL4MM_-24" value="&lt;h3&gt;Start&lt;/h3&gt;" style="rounded=1;whiteSpace=wrap;html=1;arcSize=50;fillColor=#f5f5f5;fontColor=#333333;strokeColor=#666666;" vertex="1" parent="1">
          <mxGeometry x="-160" y="200" width="120" height="40" as="geometry" />
        </mxCell>
        <mxCell id="y7_YaEfgx6U-R0lL4MM_-35" value="" style="edgeStyle=orthogonalEdgeStyle;rounded=0;orthogonalLoop=1;jettySize=auto;html=1;" edge="1" parent="1" source="y7_YaEfgx6U-R0lL4MM_-25" target="y7_YaEfgx6U-R0lL4MM_-34">
          <mxGeometry relative="1" as="geometry" />
        </mxCell>
        <mxCell id="y7_YaEfgx6U-R0lL4MM_-25" value="i = 0; i &amp;lt; arr.length - 1; ++i" style="shape=hexagon;perimeter=hexagonPerimeter2;whiteSpace=wrap;html=1;fixedSize=1;fillColor=#f5f5f5;fontColor=#333333;strokeColor=#666666;" vertex="1" parent="1">
          <mxGeometry x="-180" y="280" width="160" height="40" as="geometry" />
        </mxCell>
        <mxCell id="y7_YaEfgx6U-R0lL4MM_-30" value="" style="edgeStyle=orthogonalEdgeStyle;rounded=0;orthogonalLoop=1;jettySize=auto;html=1;" edge="1" parent="1" source="y7_YaEfgx6U-R0lL4MM_-27" target="y7_YaEfgx6U-R0lL4MM_-29">
          <mxGeometry relative="1" as="geometry" />
        </mxCell>
        <mxCell id="y7_YaEfgx6U-R0lL4MM_-33" value="" style="edgeStyle=orthogonalEdgeStyle;rounded=0;orthogonalLoop=1;jettySize=auto;html=1;" edge="1" parent="1" source="y7_YaEfgx6U-R0lL4MM_-27" target="y7_YaEfgx6U-R0lL4MM_-32">
          <mxGeometry relative="1" as="geometry" />
        </mxCell>
        <mxCell id="y7_YaEfgx6U-R0lL4MM_-27" value="arr[ i ] &amp;gt;&amp;nbsp;&lt;div&gt;arr[ i + 1 ]&lt;/div&gt;" style="rhombus;whiteSpace=wrap;html=1;fillColor=#f5f5f5;strokeColor=#666666;fontColor=#333333;" vertex="1" parent="1">
          <mxGeometry x="-140" y="440" width="80" height="80" as="geometry" />
        </mxCell>
        <mxCell id="y7_YaEfgx6U-R0lL4MM_-29" value="return false" style="whiteSpace=wrap;html=1;fillColor=#f5f5f5;strokeColor=#666666;fontColor=#333333;" vertex="1" parent="1">
          <mxGeometry x="-305" y="465" width="120" height="30" as="geometry" />
        </mxCell>
        <mxCell id="y7_YaEfgx6U-R0lL4MM_-31" value="true" style="text;html=1;align=center;verticalAlign=middle;resizable=0;points=[];autosize=1;strokeColor=none;fillColor=none;" vertex="1" parent="1">
          <mxGeometry x="-180" y="448" width="40" height="30" as="geometry" />
        </mxCell>
        <mxCell id="y7_YaEfgx6U-R0lL4MM_-39" value="" style="edgeStyle=orthogonalEdgeStyle;rounded=0;orthogonalLoop=1;jettySize=auto;html=1;" edge="1" parent="1" source="y7_YaEfgx6U-R0lL4MM_-32" target="y7_YaEfgx6U-R0lL4MM_-38">
          <mxGeometry relative="1" as="geometry" />
        </mxCell>
        <mxCell id="y7_YaEfgx6U-R0lL4MM_-32" value="" style="shape=trapezoid;perimeter=trapezoidPerimeter;whiteSpace=wrap;html=1;fixedSize=1;fillColor=#f5f5f5;strokeColor=#666666;fontColor=#333333;flipV=1;" vertex="1" parent="1">
          <mxGeometry x="-160" y="560" width="120" height="40" as="geometry" />
        </mxCell>
        <mxCell id="y7_YaEfgx6U-R0lL4MM_-36" value="" style="edgeStyle=orthogonalEdgeStyle;rounded=0;orthogonalLoop=1;jettySize=auto;html=1;" edge="1" parent="1" source="y7_YaEfgx6U-R0lL4MM_-34" target="y7_YaEfgx6U-R0lL4MM_-27">
          <mxGeometry relative="1" as="geometry" />
        </mxCell>
        <mxCell id="y7_YaEfgx6U-R0lL4MM_-34" value="" style="shape=trapezoid;perimeter=trapezoidPerimeter;whiteSpace=wrap;html=1;fixedSize=1;fillColor=#f5f5f5;strokeColor=#666666;fontColor=#333333;" vertex="1" parent="1">
          <mxGeometry x="-160" y="360" width="120" height="40" as="geometry" />
        </mxCell>
        <mxCell id="y7_YaEfgx6U-R0lL4MM_-37" value="false" style="text;html=1;align=center;verticalAlign=middle;resizable=0;points=[];autosize=1;strokeColor=none;fillColor=none;" vertex="1" parent="1">
          <mxGeometry x="-105" y="518" width="50" height="30" as="geometry" />
        </mxCell>
        <mxCell id="y7_YaEfgx6U-R0lL4MM_-41" value="" style="edgeStyle=orthogonalEdgeStyle;rounded=0;orthogonalLoop=1;jettySize=auto;html=1;" edge="1" parent="1" source="y7_YaEfgx6U-R0lL4MM_-38" target="y7_YaEfgx6U-R0lL4MM_-40">
          <mxGeometry relative="1" as="geometry" />
        </mxCell>
        <mxCell id="y7_YaEfgx6U-R0lL4MM_-38" value="return true" style="whiteSpace=wrap;html=1;fillColor=#f5f5f5;strokeColor=#666666;fontColor=#333333;" vertex="1" parent="1">
          <mxGeometry x="-160" y="640" width="120" height="40" as="geometry" />
        </mxCell>
        <mxCell id="y7_YaEfgx6U-R0lL4MM_-40" value="&lt;h3&gt;End&lt;/h3&gt;" style="rounded=1;whiteSpace=wrap;html=1;arcSize=50;fillColor=#f5f5f5;fontColor=#333333;strokeColor=#666666;" vertex="1" parent="1">
          <mxGeometry x="-160" y="720" width="120" height="40" as="geometry" />
        </mxCell>
        <mxCell id="y7_YaEfgx6U-R0lL4MM_-42" value="" style="endArrow=classic;html=1;rounded=0;exitX=0.5;exitY=1;exitDx=0;exitDy=0;" edge="1" parent="1" source="y7_YaEfgx6U-R0lL4MM_-29">
          <mxGeometry width="50" height="50" relative="1" as="geometry">
            <mxPoint x="-100" y="520" as="sourcePoint" />
            <mxPoint x="-100" y="700" as="targetPoint" />
            <Array as="points">
              <mxPoint x="-245" y="700" />
            </Array>
          </mxGeometry>
        </mxCell>
        <mxCell id="y7_YaEfgx6U-R0lL4MM_-43" value="&lt;h3&gt;End&lt;/h3&gt;" style="rounded=1;whiteSpace=wrap;html=1;fillColor=#f5f5f5;strokeColor=#666666;fontColor=#333333;arcSize=50;" vertex="1" parent="1">
          <mxGeometry x="360" y="840" width="120" height="40" as="geometry" />
        </mxCell>
      </root>
    </mxGraphModel>
  </diagram>
</mxfile>
